<svg xmlns="http://www.w3.org/2000/svg" xmlns:xlink="http://www.w3.org/1999/xlink" width="500" zoomAndPan="magnify" viewBox="0 0 375 374.999991" height="500" preserveAspectRatio="xMidYMid meet" version="1.2"><defs><clipPath id="8a673ddae5"><path d="M 61.613281 66.519531 L 159.503906 66.519531 L 159.503906 302.835938 L 61.613281 302.835938 Z M 61.613281 66.519531 "/></clipPath><clipPath id="8956071e1d"><path d="M 159.503906 280.167969 C 159.503906 292.664062 137.589844 302.792969 110.558594 302.792969 C 83.527344 302.792969 61.613281 292.664062 61.613281 280.167969 L 61.613281 89.148438 C 61.613281 76.652344 83.527344 66.519531 110.558594 66.519531 C 137.589844 66.519531 159.503906 76.652344 159.503906 89.148438 Z M 159.503906 280.167969 "/></clipPath><clipPath id="ad84030045"><path d="M 159.507812 66.523438 L 313.460938 66.523438 L 313.460938 303 L 159.507812 303 Z M 159.507812 66.523438 "/></clipPath><clipPath id="ef3858d47e"><path d="M 116.972656 184.660156 L 236.011719 184.660156 L 236.011719 232.058594 L 116.972656 232.058594 Z M 116.972656 184.660156 "/></clipPath><clipPath id="838fcef7de"><path d="M 138 66 L 215 66 L 215 208 L 138 208 Z M 138 66 "/></clipPath><clipPath id="ebdf18d0bd"><path d="M 138.941406 196.816406 L 184.929688 66.515625 L 214.046875 76.789062 L 168.054688 207.09375 Z M 138.941406 196.816406 "/></clipPath><clipPath id="7cd5095c82"><path d="M 184.550781 66.523438 L 254.773438 66.523438 L 254.773438 97.398438 L 184.550781 97.398438 Z M 184.550781 66.523438 "/></clipPath><clipPath id="3c95d0dd5b"><path d="M 190 195 L 241 195 L 241 303 L 190 303 Z M 190 195 "/></clipPath><clipPath id="6c52b5ed22"><path d="M 216.140625 308.476562 L 166.851562 296.859375 L 190.761719 195.394531 L 240.050781 207.011719 Z M 216.140625 308.476562 "/></clipPath><clipPath id="9fdafc79fe"><path d="M 191.496094 302.667969 L 190.742188 195.480469 L 240.027344 207.09375 Z M 191.496094 302.667969 "/></clipPath></defs><g id="b9da77dca9"><g clip-rule="nonzero" clip-path="url(#8a673ddae5)"><g clip-rule="nonzero" clip-path="url(#8956071e1d)"><path style=" stroke:none;fill-rule:nonzero;fill:#ff7300;fill-opacity:1;" d="M 159.503906 66.519531 L 159.503906 302.835938 L 61.613281 302.835938 L 61.613281 66.519531 Z M 159.503906 66.519531 "/></g></g><g clip-rule="nonzero" clip-path="url(#ad84030045)"><path style=" stroke:none;fill-rule:nonzero;fill:#ff7300;fill-opacity:1;" d="M 188.464844 66.5625 L 278.109375 66.5625 L 231.679688 161.179688 L 313.335938 161.179688 L 191.660156 302.851562 L 223.679688 207.445312 L 159.640625 207.445312 Z M 188.464844 66.5625 "/></g><g clip-rule="nonzero" clip-path="url(#ef3858d47e)"><path style=" stroke:none;fill-rule:nonzero;fill:#ff7300;fill-opacity:1;" d="M 116.972656 184.660156 L 236.027344 184.660156 L 236.027344 232.058594 L 116.972656 232.058594 Z M 116.972656 184.660156 "/></g><g clip-rule="nonzero" clip-path="url(#838fcef7de)"><g clip-rule="nonzero" clip-path="url(#ebdf18d0bd)"><path style=" stroke:none;fill-rule:nonzero;fill:#ff7300;fill-opacity:1;" d="M 138.941406 196.816406 L 184.941406 66.488281 L 214.054688 76.761719 L 168.054688 207.09375 Z M 138.941406 196.816406 "/></g></g><g clip-rule="nonzero" clip-path="url(#7cd5095c82)"><path style=" stroke:none;fill-rule:nonzero;fill:#ff7300;fill-opacity:1;" d="M 184.550781 66.523438 L 254.742188 66.523438 L 254.742188 97.398438 L 184.550781 97.398438 Z M 184.550781 66.523438 "/></g><g clip-rule="nonzero" clip-path="url(#3c95d0dd5b)"><g clip-rule="nonzero" clip-path="url(#6c52b5ed22)"><g clip-rule="nonzero" clip-path="url(#9fdafc79fe)"><path style=" stroke:none;fill-rule:nonzero;fill:#ff7300;fill-opacity:1;" d="M 216.140625 308.476562 L 166.851562 296.859375 L 190.761719 195.394531 L 240.050781 207.011719 Z M 216.140625 308.476562 "/></g></g></g></g></svg>